<svg width="30" height="30" viewBox="0 0 30 30" fill="none" xmlns="http://www.w3.org/2000/svg">
<path d="M29.9999 14.7847C29.9999 18.7589 29.3339 21.9825 28.512 21.9825C27.6902 21.9825 27.0244 18.7597 27.0244 14.7847C27.0244 10.8097 27.6905 7.58691 28.512 7.58691C29.3336 7.58691 29.9999 10.8094 29.9999 14.7847Z" fill="white"/>
<path d="M26.2032 14.7847C26.2032 19.2213 24.3092 22.8194 21.9727 22.8194C19.6363 22.8194 17.7422 19.2213 17.7422 14.7847C17.7422 10.348 19.636 6.75 21.9724 6.75C24.3089 6.75 26.203 10.3469 26.203 14.7847" fill="white"/>
<path d="M16.9218 14.7846C16.9218 19.498 13.1337 23.319 8.46105 23.319C3.78841 23.319 0 19.4972 0 14.7846C0 10.0721 3.78812 6.25 8.46105 6.25C13.134 6.25 16.9218 10.0712 16.9218 14.7846Z" fill="white"/>
</svg>
